#!OML:ASF F:\VICON\USERDATA\INSTALL\rory3\rory3.ASF
:FULLY-SPECIFIED
:DEGREES
460
root 3.85762 16.2287 -4.80878 61.758 -42.9751 -29.7198
lowerback -6.86016 6.59367 0.802808
upperback -10.5119 8.66338 -1.18382
thorax -6.91874 4.19354 -1.59591
lowerneck -17.0511 2.77741 3.90787
upperneck 32.685 1.71229 2.20835
head 14.0384 1.41358 0.468429
rclavicle -1.11319e-014 1.59028e-014
rhumerus 66.2897 -38.6666 -57.8506
rradius 15.881
rwrist 27.0121
rhand 4.83555 0.0484926
rfingers 7.12502
rthumb 30.2131 -27.5
lclavicle -1.11319e-014 1.59028e-014
lhumerus -18.7294 31.3156 25.9867
lradius 17.9875
lwrist -51.9106
lhand -13.3918 26.3043
lfingers 7.12502
lthumb 12.7155 55.8971
rfemur 173.978 -189.306 -161.926
rtibia 33.9725
rfoot -12.5889 -38.5161
rtoes 39.7565
lfemur -90.2251 30.7069 -43.4386
ltibia 55.4114
lfoot -37.9363 30.2703
ltoes 17.0684
461
root 3.85944 16.2037 -4.85109 60.5255 -43.7328 -27.8083
lowerback -6.91064 6.31588 -0.630229
upperback -10.4257 8.29858 -1.58623
thorax -6.94875 4.09564 -1.24176
lowerneck -17.1232 2.54267 3.79594
upperneck 32.8324 1.38385 2.2388
head 14.115 1.26415 0.447573
rclavicle 8.5875e-014 4.13472e-014
rhumerus 65.0426 -37.2702 -55.8115
rradius 16.4535
rwrist 24.3621
rhand 5.95734 -0.87543
rfingers 7.12502
rthumb 31.2827 -28.2226
lclavicle 8.5875e-014 4.13472e-014
lhumerus -18.7959 30.2841 27.3604
lradius 17.8369
lwrist -51.3211
lhand -13.2872 26.4228
lfingers 7.12502
lthumb 12.8164 56.0094
rfemur 172.572 -189.255 -162.58
rtibia 33.3908
rfoot -7.2922 -37.171
rtoes 28.2273
lfemur -90.8882 30.5338 -46.3217
ltibia 55.4461
lfoot -36.6792 29.9724
ltoes 14
462
root 3.86302 16.181 -4.88684 59.4557 -43.8653 -26.566
lowerback -6.71504 6.07748 -1.17544
upperback -10.3054 7.98122 -1.75339
thorax -6.98118 3.96702 -1.13998
lowerneck -17.1451 2.40598 3.90056
upperneck 32.9224 1.18508 2.11542
head 14.1611 1.1754 0.347329
rclavicle 1.12115e-013 1.90833e-014
rhumerus 68.2286 -37.358 -60.1484
rradius 15.8553
rwrist 27.1386
rhand 7.126 0.0231496
rfingers 7.12502
rthumb 32.3956 -27.1027
lclavicle 1.12115e-013 1.90833e-014
lhumerus -19.1759 30.1718 28.373
lradius 17.5992
lwrist -51.4311
lhand -13.0277 26.6725
lfingers 7.12502
lthumb 13.0665 56.2432
rfemur 171.531 -189.056 -162.388
rtibia 32.7723
rfoot -9.41518 -35.6198
rtoes 25.6942
lfemur -91.18 30.51 -47.9555
ltibia 55.4467
lfoot -35.5822 29.688
ltoes 10.8722
463
root 3.86929 16.1371 -4.91337 59.0533 -43.2374 -26.1927
lowerback -6.92141 5.93269 -0.40842
upperback -10.1624 7.77333 -1.74013
thorax -6.60313 3.81367 -1.49939
lowerneck -17.0889 2.25853 3.88045
upperneck 32.9906 0.9672 2.12876
head 14.1769 1.08048 0.318977
rclavicle 6.04305e-014 -4.6118e-014
rhumerus 72.0111 -37.2442 -65.4066
rradius 15.1173
rwrist 30.2281
rhand 8.02505 0.482823
rfingers 7.12502
rthumb 33.2508 -26.4641
lclavicle 6.04305e-014 -4.6118e-014
lhumerus -19.631 30.542 29.1483
lradius 17.3323
lwrist -51.792
lhand -12.5993 26.6774
lfingers 7.12502
lthumb 13.4794 56.2212
rfemur 170.594 -188.542 -161.227
rtibia 31.9627
rfoot -9.53077 -34.3716
rtoes 19.7452
lfemur -91.6713 30.4351 -48.3114
ltibia 55.7764
lfoot -34.948 29.3505
ltoes 9.86145
464
root 3.88815 16.1275 -4.97997 57.3517 -43.7259 -24.7617
lowerback -5.99527 5.60887 -1.314
upperback -9.97788 7.34504 -1.88871
thorax -7.02752 3.64938 -1.26146
lowerneck -16.9638 2.10931 3.53529
upperneck 33.1905 0.777291 2.34652
head 14.2313 0.984127 0.435006
rclavicle 2.78299e-014 4.6118e-014
rhumerus 71.7403 -35.9528 -64.5975
rradius 15.371
rwrist 28.5286
rhand 9.11623 0.152336
rfingers 7.12502
rthumb 34.2876 -26.5671
lclavicle 2.78299e-014 4.6118e-014
lhumerus -20.5195 31.5768 29.5915
lradius 17.0761
lwrist -52.7345
lhand -11.5008 26.4399
lfingers 7.12502
lthumb 14.538 55.9105
rfemur 170.145 -189.239 -161.202
rtibia 31.215
rfoot -12.0199 -34.196
rtoes 16.4205
lfemur -91.012 30.3289 -49.2442
ltibia 55.9821
lfoot -34.8545 29.2043
ltoes 9.85119
465
root 3.90008 16.0858 -5.01196 57.2078 -42.7356 -25.2385
lowerback -5.8395 5.49638 0.184383
upperback -9.84856 7.1916 -1.62254
thorax -6.81755 3.48153 -1.79679
lowerneck -16.8062 2.02037 3.29177
upperneck 33.3897 0.609769 2.64907
head 14.282 0.920523 0.571716
rclavicle -5.88403e-014 -1.27222e-014
rhumerus 70.4658 -34.352 -62.1488
rradius 15.9261
rwrist 25.4945
rhand 10.094 -0.407816
rfingers 7.12502
rthumb 35.2155 -26.9133
lclavicle -5.88403e-014 -1.27222e-014
lhumerus -21.4839 32.0949 29.9887
lradius 16.8739
lwrist -53.1318
lhand -10.4929 26.7003
lfingers 7.12502
lthumb 15.509 56.0983
rfemur 169.683 -189.549 -159.213
rtibia 30.5237
rfoot -15.8506 -33.2723
rtoes 15.9935
lfemur -91.134 30.3561 -48.0163
ltibia 56.7008
lfoot -34.9225 29.1261
ltoes 9.94945
466
root 3.91455 16.044 -5.05747 56.8638 -42.3543 -25.3636
lowerback -5.6269 5.43781 0.93365
upperback -9.73924 7.10785 -1.63074
thorax -6.72759 3.38967 -2.22313
lowerneck -16.6869 1.91828 3.20216
upperneck 33.5168 0.30625 3.13556
head 14.3143 0.843502 0.733684
rclavicle 3.18055e-015 -1.74931e-014
rhumerus 71.3007 -33.6263 -62.9948
rradius 15.916
rwrist 25.3487
rhand 10.898 -0.506334
rfingers 7.12502
rthumb 35.9776 -26.8284
lclavicle 3.18055e-015 -1.74931e-014
lhumerus -22.1147 32.3504 30.4822
lradius 16.6526
lwrist -53.5658
lhand -10.1869 26.7764
lfingers 7.12502
lthumb 15.8037 56.1513
rfemur 168.896 -189.094 -157.971
rtibia 30.1808
rfoot -18.5668 -32.1205
rtoes 15.1382
lfemur -91.0557 30.2373 -47.1312
ltibia 57.3051
lfoot -35.1693 29.3144
ltoes 9.96632
467
root 3.9306 16.0048 -5.11808 56.1554 -42.3852 -25.2181
lowerback -5.1788 5.40135 1.14227
upperback -9.58192 7.06205 -1.73573
thorax -6.77278 3.34898 -2.48022
lowerneck -16.469 1.78843 3.23373
upperneck 33.5466 0.00215444 3.42632
head 14.283 0.753238 0.792624
rclavicle 8.42847e-014 4.29375e-014
rhumerus 72.5122 -33.1909 -64.3274
rradius 15.8664
rwrist 25.9908
rhand 12.1504 -0.422584
rfingers 7.12502
rthumb 37.163 -26.4447
lclavicle 8.42847e-014 4.29375e-014
lhumerus -22.8931 34.2429 30.502
lradius 16.1172
lwrist -56.0405
lhand -10.5603 26.2977
lfingers 7.12502
lthumb 15.444 55.7007
rfemur 168.165 -188.642 -157.086
rtibia 30.0469
rfoot -20.4061 -31.2384
rtoes 13.0748
lfemur -90.5827 30.0805 -46.2647
ltibia 57.933
lfoot -35.7387 29.548
ltoes 10.2768
468
root 3.94605 15.9776 -5.17734 55.2447 -42.4879 -25.0784
lowerback -4.49106 5.33019 1.31072
upperback -9.42177 6.97784 -1.79157
thorax -6.9656 3.29016 -2.69007
lowerneck -16.1165 1.75548 3.41168
upperneck 33.6513 -0.112236 3.45582
head 14.2547 0.725161 0.751556
rclavicle -3.49861e-014 -2.8625e-014
rhumerus 72.5146 -32.214 -63.5884
rradius 16.1399
rwrist 24.7294
rhand 13.4648 -0.203276
rfingers 7.12502
rthumb 38.4046 -25.8913
lclavicle -3.49861e-014 -2.8625e-014
lhumerus -24.0791 36.641 30.0417
lradius 15.3265
lwrist -59.347
lhand -11.0976 25.9745
lfingers 7.12502
lthumb 14.9264 55.4167
rfemur 167.488 -188.743 -156.137
rtibia 30.413
rfoot -22.5586 -30.6875
rtoes 10.1634
lfemur -89.7984 30.0895 -45.3668
ltibia 58.426
lfoot -36.4091 29.5166
ltoes 11.2855
